solid OpenSCAD_Model
  facet normal -0.994522 -0.104529 0
    outer loop
      vertex 5 0 2.5
      vertex 4.89074 1.03956 5
      vertex 4.89074 1.03956 2.5
    endloop
  endfacet
  facet normal -0.994522 -0.104529 0
    outer loop
      vertex 4.89074 1.03956 5
      vertex 5 0 2.5
      vertex 5 0 5
    endloop
  endfacet
  facet normal 0.994522 -0.104529 0
    outer loop
      vertex -5 0 5
      vertex -4.89074 1.03956 2.5
      vertex -4.89074 1.03956 5
    endloop
  endfacet
  facet normal 0.994522 -0.104529 0
    outer loop
      vertex -4.89074 1.03956 2.5
      vertex -5 0 5
      vertex -5 0 2.5
    endloop
  endfacet
  facet normal 0 -1 0
    outer loop
      vertex -0.522642 4.97261 2.5
      vertex 0.522642 4.97261 5
      vertex -0.522642 4.97261 5
    endloop
  endfacet
  facet normal 0 -1 -0
    outer loop
      vertex 0.522642 4.97261 5
      vertex -0.522642 4.97261 2.5
      vertex 0.522642 4.97261 2.5
    endloop
  endfacet
  facet normal 0 1 -0
    outer loop
      vertex 0.522642 -4.97261 2.5
      vertex -0.522642 -4.97261 5
      vertex 0.522642 -4.97261 5
    endloop
  endfacet
  facet normal 0 1 0
    outer loop
      vertex -0.522642 -4.97261 5
      vertex 0.522642 -4.97261 2.5
      vertex -0.522642 -4.97261 2.5
    endloop
  endfacet
  facet normal -0.587785 -0.809017 0
    outer loop
      vertex 2.5 4.33013 2.5
      vertex 3.34565 3.71572 5
      vertex 2.5 4.33013 5
    endloop
  endfacet
  facet normal -0.587785 -0.809017 -0
    outer loop
      vertex 3.34565 3.71572 5
      vertex 2.5 4.33013 2.5
      vertex 3.34565 3.71572 2.5
    endloop
  endfacet
  facet normal -0.406737 -0.913545 0
    outer loop
      vertex 1.54508 4.75528 2.5
      vertex 2.5 4.33013 5
      vertex 1.54508 4.75528 5
    endloop
  endfacet
  facet normal -0.406737 -0.913545 -0
    outer loop
      vertex 2.5 4.33013 5
      vertex 1.54508 4.75528 2.5
      vertex 2.5 4.33013 2.5
    endloop
  endfacet
  facet normal 0.587785 -0.809017 0
    outer loop
      vertex -3.34565 3.71572 2.5
      vertex -2.5 4.33013 5
      vertex -3.34565 3.71572 5
    endloop
  endfacet
  facet normal 0.587785 -0.809017 0
    outer loop
      vertex -2.5 4.33013 5
      vertex -3.34565 3.71572 2.5
      vertex -2.5 4.33013 2.5
    endloop
  endfacet
  facet normal 0.207911 -0.978148 0
    outer loop
      vertex -1.54508 4.75528 2.5
      vertex -0.522642 4.97261 5
      vertex -1.54508 4.75528 5
    endloop
  endfacet
  facet normal 0.207911 -0.978148 0
    outer loop
      vertex -0.522642 4.97261 5
      vertex -1.54508 4.75528 2.5
      vertex -0.522642 4.97261 2.5
    endloop
  endfacet
  facet normal -0.866025 -0.5 0
    outer loop
      vertex 4.56773 2.03368 2.5
      vertex 4.04508 2.93893 5
      vertex 4.04508 2.93893 2.5
    endloop
  endfacet
  facet normal -0.866025 -0.5 0
    outer loop
      vertex 4.04508 2.93893 5
      vertex 4.56773 2.03368 2.5
      vertex 4.56773 2.03368 5
    endloop
  endfacet
  facet normal -0.951057 -0.309017 0
    outer loop
      vertex 4.89074 1.03956 2.5
      vertex 4.56773 2.03368 5
      vertex 4.56773 2.03368 2.5
    endloop
  endfacet
  facet normal -0.951057 -0.309017 0
    outer loop
      vertex 4.56773 2.03368 5
      vertex 4.89074 1.03956 2.5
      vertex 4.89074 1.03956 5
    endloop
  endfacet
  facet normal -0.743145 -0.669131 0
    outer loop
      vertex 4.04508 2.93893 2.5
      vertex 3.34565 3.71572 5
      vertex 3.34565 3.71572 2.5
    endloop
  endfacet
  facet normal -0.743145 -0.669131 0
    outer loop
      vertex 3.34565 3.71572 5
      vertex 4.04508 2.93893 2.5
      vertex 4.04508 2.93893 5
    endloop
  endfacet
  facet normal -0.207911 -0.978148 0
    outer loop
      vertex 0.522642 4.97261 2.5
      vertex 1.54508 4.75528 5
      vertex 0.522642 4.97261 5
    endloop
  endfacet
  facet normal -0.207911 -0.978148 -0
    outer loop
      vertex 1.54508 4.75528 5
      vertex 0.522642 4.97261 2.5
      vertex 1.54508 4.75528 2.5
    endloop
  endfacet
  facet normal 0.866025 -0.5 0
    outer loop
      vertex -4.56773 2.03368 5
      vertex -4.04508 2.93893 2.5
      vertex -4.04508 2.93893 5
    endloop
  endfacet
  facet normal 0.866025 -0.5 0
    outer loop
      vertex -4.04508 2.93893 2.5
      vertex -4.56773 2.03368 5
      vertex -4.56773 2.03368 2.5
    endloop
  endfacet
  facet normal 0.743145 -0.669131 0
    outer loop
      vertex -4.04508 2.93893 5
      vertex -3.34565 3.71572 2.5
      vertex -3.34565 3.71572 5
    endloop
  endfacet
  facet normal 0.743145 -0.669131 0
    outer loop
      vertex -3.34565 3.71572 2.5
      vertex -4.04508 2.93893 5
      vertex -4.04508 2.93893 2.5
    endloop
  endfacet
  facet normal 0.951057 -0.309017 0
    outer loop
      vertex -4.89074 1.03956 5
      vertex -4.56773 2.03368 2.5
      vertex -4.56773 2.03368 5
    endloop
  endfacet
  facet normal 0.951057 -0.309017 0
    outer loop
      vertex -4.56773 2.03368 2.5
      vertex -4.89074 1.03956 5
      vertex -4.89074 1.03956 2.5
    endloop
  endfacet
  facet normal 0.406737 -0.913545 0
    outer loop
      vertex -2.5 4.33013 2.5
      vertex -1.54508 4.75528 5
      vertex -2.5 4.33013 5
    endloop
  endfacet
  facet normal 0.406737 -0.913545 0
    outer loop
      vertex -1.54508 4.75528 5
      vertex -2.5 4.33013 2.5
      vertex -1.54508 4.75528 2.5
    endloop
  endfacet
  facet normal -0.994522 0.104529 0
    outer loop
      vertex 4.89074 -1.03956 2.5
      vertex 5 0 5
      vertex 5 0 2.5
    endloop
  endfacet
  facet normal -0.994522 0.104529 0
    outer loop
      vertex 5 0 5
      vertex 4.89074 -1.03956 2.5
      vertex 4.89074 -1.03956 5
    endloop
  endfacet
  facet normal 0 0 1
    outer loop
      vertex 4.89074 1.03956 2.5
      vertex 4.89074 -1.03956 2.5
      vertex 5 0 2.5
    endloop
  endfacet
  facet normal 0 0 1
    outer loop
      vertex 4.56773 2.03368 2.5
      vertex 4.89074 -1.03956 2.5
      vertex 4.89074 1.03956 2.5
    endloop
  endfacet
  facet normal 0 0 1
    outer loop
      vertex 4.56773 2.03368 2.5
      vertex 4.56773 -2.03368 2.5
      vertex 4.89074 -1.03956 2.5
    endloop
  endfacet
  facet normal 0 0 1
    outer loop
      vertex 4.04508 2.93893 2.5
      vertex 4.56773 -2.03368 2.5
      vertex 4.56773 2.03368 2.5
    endloop
  endfacet
  facet normal 0 0 1
    outer loop
      vertex 4.04508 2.93893 2.5
      vertex 4.04508 -2.93893 2.5
      vertex 4.56773 -2.03368 2.5
    endloop
  endfacet
  facet normal 0 0 1
    outer loop
      vertex 3.34565 3.71572 2.5
      vertex 4.04508 -2.93893 2.5
      vertex 4.04508 2.93893 2.5
    endloop
  endfacet
  facet normal 0 0 1
    outer loop
      vertex 3.34565 3.71572 2.5
      vertex 3.34565 -3.71572 2.5
      vertex 4.04508 -2.93893 2.5
    endloop
  endfacet
  facet normal 0 0 1
    outer loop
      vertex 2.5 4.33013 2.5
      vertex 3.34565 -3.71572 2.5
      vertex 3.34565 3.71572 2.5
    endloop
  endfacet
  facet normal 0 0 1
    outer loop
      vertex 2.5 4.33013 2.5
      vertex 2.5 -4.33013 2.5
      vertex 3.34565 -3.71572 2.5
    endloop
  endfacet
  facet normal 0 0 1
    outer loop
      vertex 1.54508 4.75528 2.5
      vertex 2.5 -4.33013 2.5
      vertex 2.5 4.33013 2.5
    endloop
  endfacet
  facet normal 0 0 1
    outer loop
      vertex 1.54508 4.75528 2.5
      vertex 1.54508 -4.75528 2.5
      vertex 2.5 -4.33013 2.5
    endloop
  endfacet
  facet normal 0 0 1
    outer loop
      vertex 0.522642 4.97261 2.5
      vertex 1.54508 -4.75528 2.5
      vertex 1.54508 4.75528 2.5
    endloop
  endfacet
  facet normal 0 0 1
    outer loop
      vertex 0.522642 4.97261 2.5
      vertex 0.522642 -4.97261 2.5
      vertex 1.54508 -4.75528 2.5
    endloop
  endfacet
  facet normal -0 0 1
    outer loop
      vertex -0.522642 4.97261 2.5
      vertex 0.522642 -4.97261 2.5
      vertex 0.522642 4.97261 2.5
    endloop
  endfacet
  facet normal 0 0 1
    outer loop
      vertex -0.522642 4.97261 2.5
      vertex -0.522642 -4.97261 2.5
      vertex 0.522642 -4.97261 2.5
    endloop
  endfacet
  facet normal -0 0 1
    outer loop
      vertex -1.54508 4.75528 2.5
      vertex -0.522642 -4.97261 2.5
      vertex -0.522642 4.97261 2.5
    endloop
  endfacet
  facet normal 0 0 1
    outer loop
      vertex -1.54508 4.75528 2.5
      vertex -1.54508 -4.75528 2.5
      vertex -0.522642 -4.97261 2.5
    endloop
  endfacet
  facet normal -0 0 1
    outer loop
      vertex -2.5 4.33013 2.5
      vertex -1.54508 -4.75528 2.5
      vertex -1.54508 4.75528 2.5
    endloop
  endfacet
  facet normal 0 0 1
    outer loop
      vertex -2.5 4.33013 2.5
      vertex -2.5 -4.33013 2.5
      vertex -1.54508 -4.75528 2.5
    endloop
  endfacet
  facet normal -0 0 1
    outer loop
      vertex -3.34565 3.71572 2.5
      vertex -2.5 -4.33013 2.5
      vertex -2.5 4.33013 2.5
    endloop
  endfacet
  facet normal 0 0 1
    outer loop
      vertex -3.34565 3.71572 2.5
      vertex -3.34565 -3.71572 2.5
      vertex -2.5 -4.33013 2.5
    endloop
  endfacet
  facet normal -0 0 1
    outer loop
      vertex -4.04508 2.93893 2.5
      vertex -3.34565 -3.71572 2.5
      vertex -3.34565 3.71572 2.5
    endloop
  endfacet
  facet normal 0 0 1
    outer loop
      vertex -4.04508 2.93893 2.5
      vertex -4.04508 -2.93893 2.5
      vertex -3.34565 -3.71572 2.5
    endloop
  endfacet
  facet normal -0 0 1
    outer loop
      vertex -4.56773 2.03368 2.5
      vertex -4.04508 -2.93893 2.5
      vertex -4.04508 2.93893 2.5
    endloop
  endfacet
  facet normal 0 0 1
    outer loop
      vertex -4.56773 2.03368 2.5
      vertex -4.56773 -2.03368 2.5
      vertex -4.04508 -2.93893 2.5
    endloop
  endfacet
  facet normal -0 0 1
    outer loop
      vertex -4.89074 1.03956 2.5
      vertex -4.56773 -2.03368 2.5
      vertex -4.56773 2.03368 2.5
    endloop
  endfacet
  facet normal 0 0 1
    outer loop
      vertex -4.89074 1.03956 2.5
      vertex -4.89074 -1.03956 2.5
      vertex -4.56773 -2.03368 2.5
    endloop
  endfacet
  facet normal 0 -0 1
    outer loop
      vertex -4.89074 -1.03956 2.5
      vertex -4.89074 1.03956 2.5
      vertex -5 0 2.5
    endloop
  endfacet
  facet normal -0.207911 0.978148 0
    outer loop
      vertex 1.54508 -4.75528 2.5
      vertex 0.522642 -4.97261 5
      vertex 1.54508 -4.75528 5
    endloop
  endfacet
  facet normal -0.207911 0.978148 0
    outer loop
      vertex 0.522642 -4.97261 5
      vertex 1.54508 -4.75528 2.5
      vertex 0.522642 -4.97261 2.5
    endloop
  endfacet
  facet normal -0.866025 0.5 0
    outer loop
      vertex 4.04508 -2.93893 2.5
      vertex 4.56773 -2.03368 5
      vertex 4.56773 -2.03368 2.5
    endloop
  endfacet
  facet normal -0.866025 0.5 0
    outer loop
      vertex 4.56773 -2.03368 5
      vertex 4.04508 -2.93893 2.5
      vertex 4.04508 -2.93893 5
    endloop
  endfacet
  facet normal 0.587785 0.809017 -0
    outer loop
      vertex -2.5 -4.33013 2.5
      vertex -3.34565 -3.71572 5
      vertex -2.5 -4.33013 5
    endloop
  endfacet
  facet normal 0.587785 0.809017 0
    outer loop
      vertex -3.34565 -3.71572 5
      vertex -2.5 -4.33013 2.5
      vertex -3.34565 -3.71572 2.5
    endloop
  endfacet
  facet normal 0.866025 0.5 0
    outer loop
      vertex -4.04508 -2.93893 5
      vertex -4.56773 -2.03368 2.5
      vertex -4.56773 -2.03368 5
    endloop
  endfacet
  facet normal 0.866025 0.5 0
    outer loop
      vertex -4.56773 -2.03368 2.5
      vertex -4.04508 -2.93893 5
      vertex -4.04508 -2.93893 2.5
    endloop
  endfacet
  facet normal 0.743145 0.669131 0
    outer loop
      vertex -3.34565 -3.71572 5
      vertex -4.04508 -2.93893 2.5
      vertex -4.04508 -2.93893 5
    endloop
  endfacet
  facet normal 0.743145 0.669131 0
    outer loop
      vertex -4.04508 -2.93893 2.5
      vertex -3.34565 -3.71572 5
      vertex -3.34565 -3.71572 2.5
    endloop
  endfacet
  facet normal -0.587785 0.809017 0
    outer loop
      vertex 3.34565 -3.71572 2.5
      vertex 2.5 -4.33013 5
      vertex 3.34565 -3.71572 5
    endloop
  endfacet
  facet normal -0.587785 0.809017 0
    outer loop
      vertex 2.5 -4.33013 5
      vertex 3.34565 -3.71572 2.5
      vertex 2.5 -4.33013 2.5
    endloop
  endfacet
  facet normal -0.406737 0.913545 0
    outer loop
      vertex 2.5 -4.33013 2.5
      vertex 1.54508 -4.75528 5
      vertex 2.5 -4.33013 5
    endloop
  endfacet
  facet normal -0.406737 0.913545 0
    outer loop
      vertex 1.54508 -4.75528 5
      vertex 2.5 -4.33013 2.5
      vertex 1.54508 -4.75528 2.5
    endloop
  endfacet
  facet normal -0.951057 0.309017 0
    outer loop
      vertex 4.56773 -2.03368 2.5
      vertex 4.89074 -1.03956 5
      vertex 4.89074 -1.03956 2.5
    endloop
  endfacet
  facet normal -0.951057 0.309017 0
    outer loop
      vertex 4.89074 -1.03956 5
      vertex 4.56773 -2.03368 2.5
      vertex 4.56773 -2.03368 5
    endloop
  endfacet
  facet normal 0.207911 0.978148 -0
    outer loop
      vertex -0.522642 -4.97261 2.5
      vertex -1.54508 -4.75528 5
      vertex -0.522642 -4.97261 5
    endloop
  endfacet
  facet normal 0.207911 0.978148 0
    outer loop
      vertex -1.54508 -4.75528 5
      vertex -0.522642 -4.97261 2.5
      vertex -1.54508 -4.75528 2.5
    endloop
  endfacet
  facet normal 0.951057 0.309017 0
    outer loop
      vertex -4.56773 -2.03368 5
      vertex -4.89074 -1.03956 2.5
      vertex -4.89074 -1.03956 5
    endloop
  endfacet
  facet normal 0.951057 0.309017 0
    outer loop
      vertex -4.89074 -1.03956 2.5
      vertex -4.56773 -2.03368 5
      vertex -4.56773 -2.03368 2.5
    endloop
  endfacet
  facet normal 0.994522 0.104529 0
    outer loop
      vertex -4.89074 -1.03956 5
      vertex -5 0 2.5
      vertex -5 0 5
    endloop
  endfacet
  facet normal 0.994522 0.104529 0
    outer loop
      vertex -5 0 2.5
      vertex -4.89074 -1.03956 5
      vertex -4.89074 -1.03956 2.5
    endloop
  endfacet
  facet normal -0.743145 0.669131 0
    outer loop
      vertex 3.34565 -3.71572 2.5
      vertex 4.04508 -2.93893 5
      vertex 4.04508 -2.93893 2.5
    endloop
  endfacet
  facet normal -0.743145 0.669131 0
    outer loop
      vertex 4.04508 -2.93893 5
      vertex 3.34565 -3.71572 2.5
      vertex 3.34565 -3.71572 5
    endloop
  endfacet
  facet normal 0.406737 0.913545 -0
    outer loop
      vertex -1.54508 -4.75528 2.5
      vertex -2.5 -4.33013 5
      vertex -1.54508 -4.75528 5
    endloop
  endfacet
  facet normal 0.406737 0.913545 0
    outer loop
      vertex -2.5 -4.33013 5
      vertex -1.54508 -4.75528 2.5
      vertex -2.5 -4.33013 2.5
    endloop
  endfacet
  facet normal -0.994522 -0.104529 0
    outer loop
      vertex 12.5 0 2.5
      vertex 12.4454 0.519779 5
      vertex 12.4454 0.519779 2.5
    endloop
  endfacet
  facet normal -0.994522 -0.104529 0
    outer loop
      vertex 12.4454 0.519779 5
      vertex 12.5 0 2.5
      vertex 12.5 0 5
    endloop
  endfacet
  facet normal 0 -1 0
    outer loop
      vertex 9.73868 2.4863 2.5
      vertex 10.2613 2.4863 5
      vertex 9.73868 2.4863 5
    endloop
  endfacet
  facet normal 0 -1 -0
    outer loop
      vertex 10.2613 2.4863 5
      vertex 9.73868 2.4863 2.5
      vertex 10.2613 2.4863 2.5
    endloop
  endfacet
  facet normal -0.587786 -0.809017 0
    outer loop
      vertex 11.25 2.16506 2.5
      vertex 11.6728 1.85786 5
      vertex 11.25 2.16506 5
    endloop
  endfacet
  facet normal -0.587786 -0.809017 -0
    outer loop
      vertex 11.6728 1.85786 5
      vertex 11.25 2.16506 2.5
      vertex 11.6728 1.85786 2.5
    endloop
  endfacet
  facet normal 0.743145 -0.669131 0
    outer loop
      vertex 7.97746 1.46946 5
      vertex 8.32717 1.85786 2.5
      vertex 8.32717 1.85786 5
    endloop
  endfacet
  facet normal 0.743145 -0.669131 0
    outer loop
      vertex 8.32717 1.85786 2.5
      vertex 7.97746 1.46946 5
      vertex 7.97746 1.46946 2.5
    endloop
  endfacet
  facet normal 0.406737 -0.913545 0
    outer loop
      vertex 8.75 2.16506 2.5
      vertex 9.22746 2.37764 5
      vertex 8.75 2.16506 5
    endloop
  endfacet
  facet normal 0.406737 -0.913545 0
    outer loop
      vertex 9.22746 2.37764 5
      vertex 8.75 2.16506 2.5
      vertex 9.22746 2.37764 2.5
    endloop
  endfacet
  facet normal -0.866025 -0.5 0
    outer loop
      vertex 12.2839 1.01684 2.5
      vertex 12.0225 1.46946 5
      vertex 12.0225 1.46946 2.5
    endloop
  endfacet
  facet normal -0.866025 -0.5 0
    outer loop
      vertex 12.0225 1.46946 5
      vertex 12.2839 1.01684 2.5
      vertex 12.2839 1.01684 5
    endloop
  endfacet
  facet normal -0.951056 -0.309018 0
    outer loop
      vertex 12.4454 0.519779 2.5
      vertex 12.2839 1.01684 5
      vertex 12.2839 1.01684 2.5
    endloop
  endfacet
  facet normal -0.951056 -0.309018 0
    outer loop
      vertex 12.2839 1.01684 5
      vertex 12.4454 0.519779 2.5
      vertex 12.4454 0.519779 5
    endloop
  endfacet
  facet normal -0.743145 -0.669131 0
    outer loop
      vertex 12.0225 1.46946 2.5
      vertex 11.6728 1.85786 5
      vertex 11.6728 1.85786 2.5
    endloop
  endfacet
  facet normal -0.743145 -0.669131 0
    outer loop
      vertex 11.6728 1.85786 5
      vertex 12.0225 1.46946 2.5
      vertex 12.0225 1.46946 5
    endloop
  endfacet
  facet normal -0.207912 -0.978148 0
    outer loop
      vertex 10.2613 2.4863 2.5
      vertex 10.7725 2.37764 5
      vertex 10.2613 2.4863 5
    endloop
  endfacet
  facet normal -0.207912 -0.978148 -0
    outer loop
      vertex 10.7725 2.37764 5
      vertex 10.2613 2.4863 2.5
      vertex 10.7725 2.37764 2.5
    endloop
  endfacet
  facet normal -0.406736 -0.913546 0
    outer loop
      vertex 10.7725 2.37764 2.5
      vertex 11.25 2.16506 5
      vertex 10.7725 2.37764 5
    endloop
  endfacet
  facet normal -0.406736 -0.913546 -0
    outer loop
      vertex 11.25 2.16506 5
      vertex 10.7725 2.37764 2.5
      vertex 11.25 2.16506 2.5
    endloop
  endfacet
  facet normal 0.951056 -0.309018 0
    outer loop
      vertex 7.55463 0.519779 5
      vertex 7.71614 1.01684 2.5
      vertex 7.71614 1.01684 5
    endloop
  endfacet
  facet normal 0.951056 -0.309018 0
    outer loop
      vertex 7.71614 1.01684 2.5
      vertex 7.55463 0.519779 5
      vertex 7.55463 0.519779 2.5
    endloop
  endfacet
  facet normal 0 0 1
    outer loop
      vertex 12.4454 0.519779 2.5
      vertex 12.4454 -0.519779 2.5
      vertex 12.5 0 2.5
    endloop
  endfacet
  facet normal 0 0 1
    outer loop
      vertex 12.2839 1.01684 2.5
      vertex 12.4454 -0.519779 2.5
      vertex 12.4454 0.519779 2.5
    endloop
  endfacet
  facet normal 0 0 1
    outer loop
      vertex 12.2839 1.01684 2.5
      vertex 12.2839 -1.01684 2.5
      vertex 12.4454 -0.519779 2.5
    endloop
  endfacet
  facet normal 0 0 1
    outer loop
      vertex 12.0225 1.46946 2.5
      vertex 12.2839 -1.01684 2.5
      vertex 12.2839 1.01684 2.5
    endloop
  endfacet
  facet normal 0 0 1
    outer loop
      vertex 12.0225 1.46946 2.5
      vertex 12.0225 -1.46946 2.5
      vertex 12.2839 -1.01684 2.5
    endloop
  endfacet
  facet normal 0 0 1
    outer loop
      vertex 11.6728 1.85786 2.5
      vertex 12.0225 -1.46946 2.5
      vertex 12.0225 1.46946 2.5
    endloop
  endfacet
  facet normal 0 0 1
    outer loop
      vertex 11.6728 1.85786 2.5
      vertex 11.6728 -1.85786 2.5
      vertex 12.0225 -1.46946 2.5
    endloop
  endfacet
  facet normal 0 0 1
    outer loop
      vertex 11.25 2.16506 2.5
      vertex 11.6728 -1.85786 2.5
      vertex 11.6728 1.85786 2.5
    endloop
  endfacet
  facet normal 0 0 1
    outer loop
      vertex 11.25 2.16506 2.5
      vertex 11.25 -2.16506 2.5
      vertex 11.6728 -1.85786 2.5
    endloop
  endfacet
  facet normal 0 0 1
    outer loop
      vertex 10.7725 2.37764 2.5
      vertex 11.25 -2.16506 2.5
      vertex 11.25 2.16506 2.5
    endloop
  endfacet
  facet normal 0 0 1
    outer loop
      vertex 10.7725 2.37764 2.5
      vertex 10.7725 -2.37764 2.5
      vertex 11.25 -2.16506 2.5
    endloop
  endfacet
  facet normal 0 0 1
    outer loop
      vertex 10.2613 2.4863 2.5
      vertex 10.7725 -2.37764 2.5
      vertex 10.7725 2.37764 2.5
    endloop
  endfacet
  facet normal 0 0 1
    outer loop
      vertex 10.2613 2.4863 2.5
      vertex 10.2613 -2.4863 2.5
      vertex 10.7725 -2.37764 2.5
    endloop
  endfacet
  facet normal -0 0 1
    outer loop
      vertex 9.73868 2.4863 2.5
      vertex 10.2613 -2.4863 2.5
      vertex 10.2613 2.4863 2.5
    endloop
  endfacet
  facet normal 0 0 1
    outer loop
      vertex 9.73868 2.4863 2.5
      vertex 9.73868 -2.4863 2.5
      vertex 10.2613 -2.4863 2.5
    endloop
  endfacet
  facet normal -0 0 1
    outer loop
      vertex 9.22746 2.37764 2.5
      vertex 9.73868 -2.4863 2.5
      vertex 9.73868 2.4863 2.5
    endloop
  endfacet
  facet normal 0 0 1
    outer loop
      vertex 9.22746 2.37764 2.5
      vertex 9.22746 -2.37764 2.5
      vertex 9.73868 -2.4863 2.5
    endloop
  endfacet
  facet normal -0 0 1
    outer loop
      vertex 8.75 2.16506 2.5
      vertex 9.22746 -2.37764 2.5
      vertex 9.22746 2.37764 2.5
    endloop
  endfacet
  facet normal 0 0 1
    outer loop
      vertex 8.75 2.16506 2.5
      vertex 8.75 -2.16506 2.5
      vertex 9.22746 -2.37764 2.5
    endloop
  endfacet
  facet normal -0 0 1
    outer loop
      vertex 8.32717 1.85786 2.5
      vertex 8.75 -2.16506 2.5
      vertex 8.75 2.16506 2.5
    endloop
  endfacet
  facet normal 0 0 1
    outer loop
      vertex 8.32717 1.85786 2.5
      vertex 8.32717 -1.85786 2.5
      vertex 8.75 -2.16506 2.5
    endloop
  endfacet
  facet normal -0 0 1
    outer loop
      vertex 7.97746 1.46946 2.5
      vertex 8.32717 -1.85786 2.5
      vertex 8.32717 1.85786 2.5
    endloop
  endfacet
  facet normal 0 0 1
    outer loop
      vertex 7.97746 1.46946 2.5
      vertex 7.97746 -1.46946 2.5
      vertex 8.32717 -1.85786 2.5
    endloop
  endfacet
  facet normal -0 0 1
    outer loop
      vertex 7.71614 1.01684 2.5
      vertex 7.97746 -1.46946 2.5
      vertex 7.97746 1.46946 2.5
    endloop
  endfacet
  facet normal 0 0 1
    outer loop
      vertex 7.71614 1.01684 2.5
      vertex 7.71614 -1.01684 2.5
      vertex 7.97746 -1.46946 2.5
    endloop
  endfacet
  facet normal -0 0 1
    outer loop
      vertex 7.55463 0.519779 2.5
      vertex 7.71614 -1.01684 2.5
      vertex 7.71614 1.01684 2.5
    endloop
  endfacet
  facet normal 0 0 1
    outer loop
      vertex 7.55463 0.519779 2.5
      vertex 7.55463 -0.519779 2.5
      vertex 7.71614 -1.01684 2.5
    endloop
  endfacet
  facet normal 0 -0 1
    outer loop
      vertex 7.55463 -0.519779 2.5
      vertex 7.55463 0.519779 2.5
      vertex 7.5 0 2.5
    endloop
  endfacet
  facet normal 0.866025 -0.5 0
    outer loop
      vertex 7.71614 1.01684 5
      vertex 7.97746 1.46946 2.5
      vertex 7.97746 1.46946 5
    endloop
  endfacet
  facet normal 0.866025 -0.5 0
    outer loop
      vertex 7.97746 1.46946 2.5
      vertex 7.71614 1.01684 5
      vertex 7.71614 1.01684 2.5
    endloop
  endfacet
  facet normal 0.994522 -0.104527 0
    outer loop
      vertex 7.5 0 5
      vertex 7.55463 0.519779 2.5
      vertex 7.55463 0.519779 5
    endloop
  endfacet
  facet normal 0.994522 -0.104527 0
    outer loop
      vertex 7.55463 0.519779 2.5
      vertex 7.5 0 5
      vertex 7.5 0 2.5
    endloop
  endfacet
  facet normal 0.587785 -0.809017 0
    outer loop
      vertex 8.32717 1.85786 2.5
      vertex 8.75 2.16506 5
      vertex 8.32717 1.85786 5
    endloop
  endfacet
  facet normal 0.587785 -0.809017 0
    outer loop
      vertex 8.75 2.16506 5
      vertex 8.32717 1.85786 2.5
      vertex 8.75 2.16506 2.5
    endloop
  endfacet
  facet normal 0.207912 -0.978148 0
    outer loop
      vertex 9.22746 2.37764 2.5
      vertex 9.73868 2.4863 5
      vertex 9.22746 2.37764 5
    endloop
  endfacet
  facet normal 0.207912 -0.978148 0
    outer loop
      vertex 9.73868 2.4863 5
      vertex 9.22746 2.37764 2.5
      vertex 9.73868 2.4863 2.5
    endloop
  endfacet
  facet normal -0.994522 0.104529 0
    outer loop
      vertex 12.4454 -0.519779 2.5
      vertex 12.5 0 5
      vertex 12.5 0 2.5
    endloop
  endfacet
  facet normal -0.994522 0.104529 0
    outer loop
      vertex 12.5 0 5
      vertex 12.4454 -0.519779 2.5
      vertex 12.4454 -0.519779 5
    endloop
  endfacet
  facet normal -0.207912 0.978148 0
    outer loop
      vertex 10.7725 -2.37764 2.5
      vertex 10.2613 -2.4863 5
      vertex 10.7725 -2.37764 5
    endloop
  endfacet
  facet normal -0.207912 0.978148 0
    outer loop
      vertex 10.2613 -2.4863 5
      vertex 10.7725 -2.37764 2.5
      vertex 10.2613 -2.4863 2.5
    endloop
  endfacet
  facet normal -0.587786 0.809017 0
    outer loop
      vertex 11.6728 -1.85786 2.5
      vertex 11.25 -2.16506 5
      vertex 11.6728 -1.85786 5
    endloop
  endfacet
  facet normal -0.587786 0.809017 0
    outer loop
      vertex 11.25 -2.16506 5
      vertex 11.6728 -1.85786 2.5
      vertex 11.25 -2.16506 2.5
    endloop
  endfacet
  facet normal 0.406736 0.913546 -0
    outer loop
      vertex 9.22746 -2.37764 2.5
      vertex 8.75 -2.16506 5
      vertex 9.22746 -2.37764 5
    endloop
  endfacet
  facet normal 0.406736 0.913546 0
    outer loop
      vertex 8.75 -2.16506 5
      vertex 9.22746 -2.37764 2.5
      vertex 8.75 -2.16506 2.5
    endloop
  endfacet
  facet normal 0 1 -0
    outer loop
      vertex 10.2613 -2.4863 2.5
      vertex 9.73868 -2.4863 5
      vertex 10.2613 -2.4863 5
    endloop
  endfacet
  facet normal 0 1 0
    outer loop
      vertex 9.73868 -2.4863 5
      vertex 10.2613 -2.4863 2.5
      vertex 9.73868 -2.4863 2.5
    endloop
  endfacet
  facet normal 0.743145 0.669131 0
    outer loop
      vertex 8.32717 -1.85786 5
      vertex 7.97746 -1.46946 2.5
      vertex 7.97746 -1.46946 5
    endloop
  endfacet
  facet normal 0.743145 0.669131 0
    outer loop
      vertex 7.97746 -1.46946 2.5
      vertex 8.32717 -1.85786 5
      vertex 8.32717 -1.85786 2.5
    endloop
  endfacet
  facet normal 0.951056 0.309018 0
    outer loop
      vertex 7.71614 -1.01684 5
      vertex 7.55463 -0.519779 2.5
      vertex 7.55463 -0.519779 5
    endloop
  endfacet
  facet normal 0.951056 0.309018 0
    outer loop
      vertex 7.55463 -0.519779 2.5
      vertex 7.71614 -1.01684 5
      vertex 7.71614 -1.01684 2.5
    endloop
  endfacet
  facet normal 0.994522 0.104527 0
    outer loop
      vertex 7.55463 -0.519779 5
      vertex 7.5 0 2.5
      vertex 7.5 0 5
    endloop
  endfacet
  facet normal 0.994522 0.104527 0
    outer loop
      vertex 7.5 0 2.5
      vertex 7.55463 -0.519779 5
      vertex 7.55463 -0.519779 2.5
    endloop
  endfacet
  facet normal -0.406736 0.913546 0
    outer loop
      vertex 11.25 -2.16506 2.5
      vertex 10.7725 -2.37764 5
      vertex 11.25 -2.16506 5
    endloop
  endfacet
  facet normal -0.406736 0.913546 0
    outer loop
      vertex 10.7725 -2.37764 5
      vertex 11.25 -2.16506 2.5
      vertex 10.7725 -2.37764 2.5
    endloop
  endfacet
  facet normal -0.743145 0.669131 0
    outer loop
      vertex 11.6728 -1.85786 2.5
      vertex 12.0225 -1.46946 5
      vertex 12.0225 -1.46946 2.5
    endloop
  endfacet
  facet normal -0.743145 0.669131 0
    outer loop
      vertex 12.0225 -1.46946 5
      vertex 11.6728 -1.85786 2.5
      vertex 11.6728 -1.85786 5
    endloop
  endfacet
  facet normal -0.951056 0.309018 0
    outer loop
      vertex 12.2839 -1.01684 2.5
      vertex 12.4454 -0.519779 5
      vertex 12.4454 -0.519779 2.5
    endloop
  endfacet
  facet normal -0.951056 0.309018 0
    outer loop
      vertex 12.4454 -0.519779 5
      vertex 12.2839 -1.01684 2.5
      vertex 12.2839 -1.01684 5
    endloop
  endfacet
  facet normal -0.866025 0.5 0
    outer loop
      vertex 12.0225 -1.46946 2.5
      vertex 12.2839 -1.01684 5
      vertex 12.2839 -1.01684 2.5
    endloop
  endfacet
  facet normal -0.866025 0.5 0
    outer loop
      vertex 12.2839 -1.01684 5
      vertex 12.0225 -1.46946 2.5
      vertex 12.0225 -1.46946 5
    endloop
  endfacet
  facet normal 0.207912 0.978148 -0
    outer loop
      vertex 9.73868 -2.4863 2.5
      vertex 9.22746 -2.37764 5
      vertex 9.73868 -2.4863 5
    endloop
  endfacet
  facet normal 0.207912 0.978148 0
    outer loop
      vertex 9.22746 -2.37764 5
      vertex 9.73868 -2.4863 2.5
      vertex 9.22746 -2.37764 2.5
    endloop
  endfacet
  facet normal 0.587786 0.809017 -0
    outer loop
      vertex 8.75 -2.16506 2.5
      vertex 8.32717 -1.85786 5
      vertex 8.75 -2.16506 5
    endloop
  endfacet
  facet normal 0.587786 0.809017 0
    outer loop
      vertex 8.32717 -1.85786 5
      vertex 8.75 -2.16506 2.5
      vertex 8.32717 -1.85786 2.5
    endloop
  endfacet
  facet normal 0.866025 0.5 0
    outer loop
      vertex 7.97746 -1.46946 5
      vertex 7.71614 -1.01684 2.5
      vertex 7.71614 -1.01684 5
    endloop
  endfacet
  facet normal 0.866025 0.5 0
    outer loop
      vertex 7.71614 -1.01684 2.5
      vertex 7.97746 -1.46946 5
      vertex 7.97746 -1.46946 2.5
    endloop
  endfacet
  facet normal -0.994522 -0.104527 0
    outer loop
      vertex -7.5 0 2.5
      vertex -7.55463 0.519779 5
      vertex -7.55463 0.519779 2.5
    endloop
  endfacet
  facet normal -0.994522 -0.104527 0
    outer loop
      vertex -7.55463 0.519779 5
      vertex -7.5 0 2.5
      vertex -7.5 0 5
    endloop
  endfacet
  facet normal 0.994522 -0.104529 0
    outer loop
      vertex -12.5 0 5
      vertex -12.4454 0.519779 2.5
      vertex -12.4454 0.519779 5
    endloop
  endfacet
  facet normal 0.994522 -0.104529 0
    outer loop
      vertex -12.4454 0.519779 2.5
      vertex -12.5 0 5
      vertex -12.5 0 2.5
    endloop
  endfacet
  facet normal 0 -1 0
    outer loop
      vertex -10.2613 2.4863 2.5
      vertex -9.73868 2.4863 5
      vertex -10.2613 2.4863 5
    endloop
  endfacet
  facet normal 0 -1 -0
    outer loop
      vertex -9.73868 2.4863 5
      vertex -10.2613 2.4863 2.5
      vertex -9.73868 2.4863 2.5
    endloop
  endfacet
  facet normal 0 1 -0
    outer loop
      vertex -9.73868 -2.4863 2.5
      vertex -10.2613 -2.4863 5
      vertex -9.73868 -2.4863 5
    endloop
  endfacet
  facet normal 0 1 0
    outer loop
      vertex -10.2613 -2.4863 5
      vertex -9.73868 -2.4863 2.5
      vertex -10.2613 -2.4863 2.5
    endloop
  endfacet
  facet normal -0.743145 -0.669131 0
    outer loop
      vertex -7.97746 1.46946 2.5
      vertex -8.32717 1.85786 5
      vertex -8.32717 1.85786 2.5
    endloop
  endfacet
  facet normal -0.743145 -0.669131 0
    outer loop
      vertex -8.32717 1.85786 5
      vertex -7.97746 1.46946 2.5
      vertex -7.97746 1.46946 5
    endloop
  endfacet
  facet normal 0.587786 -0.809017 0
    outer loop
      vertex -11.6728 1.85786 2.5
      vertex -11.25 2.16506 5
      vertex -11.6728 1.85786 5
    endloop
  endfacet
  facet normal 0.587786 -0.809017 0
    outer loop
      vertex -11.25 2.16506 5
      vertex -11.6728 1.85786 2.5
      vertex -11.25 2.16506 2.5
    endloop
  endfacet
  facet normal 0.406736 -0.913546 0
    outer loop
      vertex -11.25 2.16506 2.5
      vertex -10.7725 2.37764 5
      vertex -11.25 2.16506 5
    endloop
  endfacet
  facet normal 0.406736 -0.913546 0
    outer loop
      vertex -10.7725 2.37764 5
      vertex -11.25 2.16506 2.5
      vertex -10.7725 2.37764 2.5
    endloop
  endfacet
  facet normal -0.866025 0.5 0
    outer loop
      vertex -7.97746 -1.46946 2.5
      vertex -7.71614 -1.01684 5
      vertex -7.71614 -1.01684 2.5
    endloop
  endfacet
  facet normal -0.866025 0.5 0
    outer loop
      vertex -7.71614 -1.01684 5
      vertex -7.97746 -1.46946 2.5
      vertex -7.97746 -1.46946 5
    endloop
  endfacet
  facet normal -0.866025 -0.5 0
    outer loop
      vertex -7.71614 1.01684 2.5
      vertex -7.97746 1.46946 5
      vertex -7.97746 1.46946 2.5
    endloop
  endfacet
  facet normal -0.866025 -0.5 0
    outer loop
      vertex -7.97746 1.46946 5
      vertex -7.71614 1.01684 2.5
      vertex -7.71614 1.01684 5
    endloop
  endfacet
  facet normal -0.951056 -0.309018 0
    outer loop
      vertex -7.55463 0.519779 2.5
      vertex -7.71614 1.01684 5
      vertex -7.71614 1.01684 2.5
    endloop
  endfacet
  facet normal -0.951056 -0.309018 0
    outer loop
      vertex -7.71614 1.01684 5
      vertex -7.55463 0.519779 2.5
      vertex -7.55463 0.519779 5
    endloop
  endfacet
  facet normal -0.406737 -0.913545 0
    outer loop
      vertex -9.22746 2.37764 2.5
      vertex -8.75 2.16506 5
      vertex -9.22746 2.37764 5
    endloop
  endfacet
  facet normal -0.406737 -0.913545 -0
    outer loop
      vertex -8.75 2.16506 5
      vertex -9.22746 2.37764 2.5
      vertex -8.75 2.16506 2.5
    endloop
  endfacet
  facet normal -0.207912 -0.978148 0
    outer loop
      vertex -9.73868 2.4863 2.5
      vertex -9.22746 2.37764 5
      vertex -9.73868 2.4863 5
    endloop
  endfacet
  facet normal -0.207912 -0.978148 -0
    outer loop
      vertex -9.22746 2.37764 5
      vertex -9.73868 2.4863 2.5
      vertex -9.22746 2.37764 2.5
    endloop
  endfacet
  facet normal -0.587785 -0.809017 0
    outer loop
      vertex -8.75 2.16506 2.5
      vertex -8.32717 1.85786 5
      vertex -8.75 2.16506 5
    endloop
  endfacet
  facet normal -0.587785 -0.809017 -0
    outer loop
      vertex -8.32717 1.85786 5
      vertex -8.75 2.16506 2.5
      vertex -8.32717 1.85786 2.5
    endloop
  endfacet
  facet normal 0.866025 -0.5 0
    outer loop
      vertex -12.2839 1.01684 5
      vertex -12.0225 1.46946 2.5
      vertex -12.0225 1.46946 5
    endloop
  endfacet
  facet normal 0.866025 -0.5 0
    outer loop
      vertex -12.0225 1.46946 2.5
      vertex -12.2839 1.01684 5
      vertex -12.2839 1.01684 2.5
    endloop
  endfacet
  facet normal 0.743145 -0.669131 0
    outer loop
      vertex -12.0225 1.46946 5
      vertex -11.6728 1.85786 2.5
      vertex -11.6728 1.85786 5
    endloop
  endfacet
  facet normal 0.743145 -0.669131 0
    outer loop
      vertex -11.6728 1.85786 2.5
      vertex -12.0225 1.46946 5
      vertex -12.0225 1.46946 2.5
    endloop
  endfacet
  facet normal 0.951056 -0.309018 0
    outer loop
      vertex -12.4454 0.519779 5
      vertex -12.2839 1.01684 2.5
      vertex -12.2839 1.01684 5
    endloop
  endfacet
  facet normal 0.951056 -0.309018 0
    outer loop
      vertex -12.2839 1.01684 2.5
      vertex -12.4454 0.519779 5
      vertex -12.4454 0.519779 2.5
    endloop
  endfacet
  facet normal 0.207912 -0.978148 0
    outer loop
      vertex -10.7725 2.37764 2.5
      vertex -10.2613 2.4863 5
      vertex -10.7725 2.37764 5
    endloop
  endfacet
  facet normal 0.207912 -0.978148 0
    outer loop
      vertex -10.2613 2.4863 5
      vertex -10.7725 2.37764 2.5
      vertex -10.2613 2.4863 2.5
    endloop
  endfacet
  facet normal -0.994522 0.104527 0
    outer loop
      vertex -7.55463 -0.519779 2.5
      vertex -7.5 0 5
      vertex -7.5 0 2.5
    endloop
  endfacet
  facet normal -0.994522 0.104527 0
    outer loop
      vertex -7.5 0 5
      vertex -7.55463 -0.519779 2.5
      vertex -7.55463 -0.519779 5
    endloop
  endfacet
  facet normal 0 0 1
    outer loop
      vertex -7.55463 0.519779 2.5
      vertex -7.55463 -0.519779 2.5
      vertex -7.5 0 2.5
    endloop
  endfacet
  facet normal 0 0 1
    outer loop
      vertex -7.71614 1.01684 2.5
      vertex -7.55463 -0.519779 2.5
      vertex -7.55463 0.519779 2.5
    endloop
  endfacet
  facet normal 0 0 1
    outer loop
      vertex -7.71614 1.01684 2.5
      vertex -7.71614 -1.01684 2.5
      vertex -7.55463 -0.519779 2.5
    endloop
  endfacet
  facet normal 0 0 1
    outer loop
      vertex -7.97746 1.46946 2.5
      vertex -7.71614 -1.01684 2.5
      vertex -7.71614 1.01684 2.5
    endloop
  endfacet
  facet normal 0 0 1
    outer loop
      vertex -7.97746 1.46946 2.5
      vertex -7.97746 -1.46946 2.5
      vertex -7.71614 -1.01684 2.5
    endloop
  endfacet
  facet normal 0 0 1
    outer loop
      vertex -8.32717 1.85786 2.5
      vertex -7.97746 -1.46946 2.5
      vertex -7.97746 1.46946 2.5
    endloop
  endfacet
  facet normal 0 0 1
    outer loop
      vertex -8.32717 1.85786 2.5
      vertex -8.32717 -1.85786 2.5
      vertex -7.97746 -1.46946 2.5
    endloop
  endfacet
  facet normal 0 0 1
    outer loop
      vertex -8.75 2.16506 2.5
      vertex -8.32717 -1.85786 2.5
      vertex -8.32717 1.85786 2.5
    endloop
  endfacet
  facet normal 0 0 1
    outer loop
      vertex -8.75 2.16506 2.5
      vertex -8.75 -2.16506 2.5
      vertex -8.32717 -1.85786 2.5
    endloop
  endfacet
  facet normal 0 0 1
    outer loop
      vertex -9.22746 2.37764 2.5
      vertex -8.75 -2.16506 2.5
      vertex -8.75 2.16506 2.5
    endloop
  endfacet
  facet normal 0 0 1
    outer loop
      vertex -9.22746 2.37764 2.5
      vertex -9.22746 -2.37764 2.5
      vertex -8.75 -2.16506 2.5
    endloop
  endfacet
  facet normal 0 0 1
    outer loop
      vertex -9.73868 2.4863 2.5
      vertex -9.22746 -2.37764 2.5
      vertex -9.22746 2.37764 2.5
    endloop
  endfacet
  facet normal 0 0 1
    outer loop
      vertex -9.73868 2.4863 2.5
      vertex -9.73868 -2.4863 2.5
      vertex -9.22746 -2.37764 2.5
    endloop
  endfacet
  facet normal -0 0 1
    outer loop
      vertex -10.2613 2.4863 2.5
      vertex -9.73868 -2.4863 2.5
      vertex -9.73868 2.4863 2.5
    endloop
  endfacet
  facet normal 0 0 1
    outer loop
      vertex -10.2613 2.4863 2.5
      vertex -10.2613 -2.4863 2.5
      vertex -9.73868 -2.4863 2.5
    endloop
  endfacet
  facet normal -0 0 1
    outer loop
      vertex -10.7725 2.37764 2.5
      vertex -10.2613 -2.4863 2.5
      vertex -10.2613 2.4863 2.5
    endloop
  endfacet
  facet normal 0 0 1
    outer loop
      vertex -10.7725 2.37764 2.5
      vertex -10.7725 -2.37764 2.5
      vertex -10.2613 -2.4863 2.5
    endloop
  endfacet
  facet normal -0 0 1
    outer loop
      vertex -11.25 2.16506 2.5
      vertex -10.7725 -2.37764 2.5
      vertex -10.7725 2.37764 2.5
    endloop
  endfacet
  facet normal 0 0 1
    outer loop
      vertex -11.25 2.16506 2.5
      vertex -11.25 -2.16506 2.5
      vertex -10.7725 -2.37764 2.5
    endloop
  endfacet
  facet normal -0 0 1
    outer loop
      vertex -11.6728 1.85786 2.5
      vertex -11.25 -2.16506 2.5
      vertex -11.25 2.16506 2.5
    endloop
  endfacet
  facet normal 0 0 1
    outer loop
      vertex -11.6728 1.85786 2.5
      vertex -11.6728 -1.85786 2.5
      vertex -11.25 -2.16506 2.5
    endloop
  endfacet
  facet normal -0 0 1
    outer loop
      vertex -12.0225 1.46946 2.5
      vertex -11.6728 -1.85786 2.5
      vertex -11.6728 1.85786 2.5
    endloop
  endfacet
  facet normal 0 0 1
    outer loop
      vertex -12.0225 1.46946 2.5
      vertex -12.0225 -1.46946 2.5
      vertex -11.6728 -1.85786 2.5
    endloop
  endfacet
  facet normal -0 0 1
    outer loop
      vertex -12.2839 1.01684 2.5
      vertex -12.0225 -1.46946 2.5
      vertex -12.0225 1.46946 2.5
    endloop
  endfacet
  facet normal 0 0 1
    outer loop
      vertex -12.2839 1.01684 2.5
      vertex -12.2839 -1.01684 2.5
      vertex -12.0225 -1.46946 2.5
    endloop
  endfacet
  facet normal -0 0 1
    outer loop
      vertex -12.4454 0.519779 2.5
      vertex -12.2839 -1.01684 2.5
      vertex -12.2839 1.01684 2.5
    endloop
  endfacet
  facet normal 0 0 1
    outer loop
      vertex -12.4454 0.519779 2.5
      vertex -12.4454 -0.519779 2.5
      vertex -12.2839 -1.01684 2.5
    endloop
  endfacet
  facet normal 0 -0 1
    outer loop
      vertex -12.4454 -0.519779 2.5
      vertex -12.4454 0.519779 2.5
      vertex -12.5 0 2.5
    endloop
  endfacet
  facet normal -0.587785 0.809017 0
    outer loop
      vertex -8.32717 -1.85786 2.5
      vertex -8.75 -2.16506 5
      vertex -8.32717 -1.85786 5
    endloop
  endfacet
  facet normal -0.587785 0.809017 0
    outer loop
      vertex -8.75 -2.16506 5
      vertex -8.32717 -1.85786 2.5
      vertex -8.75 -2.16506 2.5
    endloop
  endfacet
  facet normal -0.743145 0.669131 0
    outer loop
      vertex -8.32717 -1.85786 2.5
      vertex -7.97746 -1.46946 5
      vertex -7.97746 -1.46946 2.5
    endloop
  endfacet
  facet normal -0.743145 0.669131 0
    outer loop
      vertex -7.97746 -1.46946 5
      vertex -8.32717 -1.85786 2.5
      vertex -8.32717 -1.85786 5
    endloop
  endfacet
  facet normal -0.951056 0.309018 0
    outer loop
      vertex -7.71614 -1.01684 2.5
      vertex -7.55463 -0.519779 5
      vertex -7.55463 -0.519779 2.5
    endloop
  endfacet
  facet normal -0.951056 0.309018 0
    outer loop
      vertex -7.55463 -0.519779 5
      vertex -7.71614 -1.01684 2.5
      vertex -7.71614 -1.01684 5
    endloop
  endfacet
  facet normal 0.587786 0.809017 -0
    outer loop
      vertex -11.25 -2.16506 2.5
      vertex -11.6728 -1.85786 5
      vertex -11.25 -2.16506 5
    endloop
  endfacet
  facet normal 0.587786 0.809017 0
    outer loop
      vertex -11.6728 -1.85786 5
      vertex -11.25 -2.16506 2.5
      vertex -11.6728 -1.85786 2.5
    endloop
  endfacet
  facet normal 0.866025 0.5 0
    outer loop
      vertex -12.0225 -1.46946 5
      vertex -12.2839 -1.01684 2.5
      vertex -12.2839 -1.01684 5
    endloop
  endfacet
  facet normal 0.866025 0.5 0
    outer loop
      vertex -12.2839 -1.01684 2.5
      vertex -12.0225 -1.46946 5
      vertex -12.0225 -1.46946 2.5
    endloop
  endfacet
  facet normal 0.743145 0.669131 0
    outer loop
      vertex -11.6728 -1.85786 5
      vertex -12.0225 -1.46946 2.5
      vertex -12.0225 -1.46946 5
    endloop
  endfacet
  facet normal 0.743145 0.669131 0
    outer loop
      vertex -12.0225 -1.46946 2.5
      vertex -11.6728 -1.85786 5
      vertex -11.6728 -1.85786 2.5
    endloop
  endfacet
  facet normal 0.951056 0.309018 0
    outer loop
      vertex -12.2839 -1.01684 5
      vertex -12.4454 -0.519779 2.5
      vertex -12.4454 -0.519779 5
    endloop
  endfacet
  facet normal 0.951056 0.309018 0
    outer loop
      vertex -12.4454 -0.519779 2.5
      vertex -12.2839 -1.01684 5
      vertex -12.2839 -1.01684 2.5
    endloop
  endfacet
  facet normal 0.994522 0.104529 0
    outer loop
      vertex -12.4454 -0.519779 5
      vertex -12.5 0 2.5
      vertex -12.5 0 5
    endloop
  endfacet
  facet normal 0.994522 0.104529 0
    outer loop
      vertex -12.5 0 2.5
      vertex -12.4454 -0.519779 5
      vertex -12.4454 -0.519779 2.5
    endloop
  endfacet
  facet normal -0.406737 0.913545 0
    outer loop
      vertex -8.75 -2.16506 2.5
      vertex -9.22746 -2.37764 5
      vertex -8.75 -2.16506 5
    endloop
  endfacet
  facet normal -0.406737 0.913545 0
    outer loop
      vertex -9.22746 -2.37764 5
      vertex -8.75 -2.16506 2.5
      vertex -9.22746 -2.37764 2.5
    endloop
  endfacet
  facet normal -0.207912 0.978148 0
    outer loop
      vertex -9.22746 -2.37764 2.5
      vertex -9.73868 -2.4863 5
      vertex -9.22746 -2.37764 5
    endloop
  endfacet
  facet normal -0.207912 0.978148 0
    outer loop
      vertex -9.73868 -2.4863 5
      vertex -9.22746 -2.37764 2.5
      vertex -9.73868 -2.4863 2.5
    endloop
  endfacet
  facet normal 0.406736 0.913546 -0
    outer loop
      vertex -10.7725 -2.37764 2.5
      vertex -11.25 -2.16506 5
      vertex -10.7725 -2.37764 5
    endloop
  endfacet
  facet normal 0.406736 0.913546 0
    outer loop
      vertex -11.25 -2.16506 5
      vertex -10.7725 -2.37764 2.5
      vertex -11.25 -2.16506 2.5
    endloop
  endfacet
  facet normal 0.207912 0.978148 -0
    outer loop
      vertex -10.2613 -2.4863 2.5
      vertex -10.7725 -2.37764 5
      vertex -10.2613 -2.4863 5
    endloop
  endfacet
  facet normal 0.207912 0.978148 0
    outer loop
      vertex -10.7725 -2.37764 5
      vertex -10.2613 -2.4863 2.5
      vertex -10.7725 -2.37764 2.5
    endloop
  endfacet
  facet normal 0 0 -1
    outer loop
      vertex 14.8907 -1.03956 0
      vertex 14.8907 1.03956 0
      vertex 15 0 0
    endloop
  endfacet
  facet normal 0 0 -1
    outer loop
      vertex 14.5677 -2.03368 0
      vertex 14.8907 1.03956 0
      vertex 14.8907 -1.03956 0
    endloop
  endfacet
  facet normal 0 0 -1
    outer loop
      vertex 14.5677 -2.03368 0
      vertex 14.5677 2.03368 0
      vertex 14.8907 1.03956 0
    endloop
  endfacet
  facet normal 0 0 -1
    outer loop
      vertex 14.0451 -2.93893 0
      vertex 14.5677 2.03368 0
      vertex 14.5677 -2.03368 0
    endloop
  endfacet
  facet normal 0 0 -1
    outer loop
      vertex 14.0451 -2.93893 0
      vertex 14.0451 2.93893 0
      vertex 14.5677 2.03368 0
    endloop
  endfacet
  facet normal 0 0 -1
    outer loop
      vertex 13.3457 -3.71572 0
      vertex 14.0451 2.93893 0
      vertex 14.0451 -2.93893 0
    endloop
  endfacet
  facet normal 0 0 -1
    outer loop
      vertex 13.3457 -3.71572 0
      vertex 13.3457 3.71572 0
      vertex 14.0451 2.93893 0
    endloop
  endfacet
  facet normal 0 0 -1
    outer loop
      vertex 12.5 -4.33013 0
      vertex 13.3457 3.71572 0
      vertex 13.3457 -3.71572 0
    endloop
  endfacet
  facet normal 0 0 -1
    outer loop
      vertex 12.5 -4.33013 0
      vertex 12.5 4.33013 0
      vertex 13.3457 3.71572 0
    endloop
  endfacet
  facet normal 0 0 -1
    outer loop
      vertex 5 -8.66025 0
      vertex 12.5 4.33013 0
      vertex 12.5 -4.33013 0
    endloop
  endfacet
  facet normal 0 0 -1
    outer loop
      vertex 5 -8.66025 0
      vertex 5 8.66025 0
      vertex 12.5 4.33013 0
    endloop
  endfacet
  facet normal 0 0 -1
    outer loop
      vertex 3.09017 -9.51056 0
      vertex 5 8.66025 0
      vertex 5 -8.66025 0
    endloop
  endfacet
  facet normal 0 0 -1
    outer loop
      vertex 3.09017 -9.51056 0
      vertex 3.09017 9.51056 0
      vertex 5 8.66025 0
    endloop
  endfacet
  facet normal 0 0 -1
    outer loop
      vertex 1.04528 -9.94522 0
      vertex 3.09017 9.51056 0
      vertex 3.09017 -9.51056 0
    endloop
  endfacet
  facet normal 0 0 -1
    outer loop
      vertex 1.04528 -9.94522 0
      vertex 1.04528 9.94522 0
      vertex 3.09017 9.51056 0
    endloop
  endfacet
  facet normal 0 0 -1
    outer loop
      vertex -1.04528 -9.94522 0
      vertex 1.04528 9.94522 0
      vertex 1.04528 -9.94522 0
    endloop
  endfacet
  facet normal 0 0 -1
    outer loop
      vertex -1.04528 -9.94522 0
      vertex -1.04528 9.94522 0
      vertex 1.04528 9.94522 0
    endloop
  endfacet
  facet normal 0 0 -1
    outer loop
      vertex -3.09017 -9.51056 0
      vertex -1.04528 9.94522 0
      vertex -1.04528 -9.94522 0
    endloop
  endfacet
  facet normal 0 0 -1
    outer loop
      vertex -3.09017 -9.51056 0
      vertex -3.09017 9.51056 0
      vertex -1.04528 9.94522 0
    endloop
  endfacet
  facet normal 0 0 -1
    outer loop
      vertex -3.09017 -9.51056 0
      vertex -5 8.66025 0
      vertex -3.09017 9.51056 0
    endloop
  endfacet
  facet normal 0 0 -1
    outer loop
      vertex -5 -8.66025 0
      vertex -5 8.66025 0
      vertex -3.09017 -9.51056 0
    endloop
  endfacet
  facet normal 0 0 -1
    outer loop
      vertex -12.5 -4.33013 0
      vertex -5 8.66025 0
      vertex -5 -8.66025 0
    endloop
  endfacet
  facet normal 0 0 -1
    outer loop
      vertex -12.5 -4.33013 0
      vertex -12.5 4.33013 0
      vertex -5 8.66025 0
    endloop
  endfacet
  facet normal 0 0 -1
    outer loop
      vertex -13.3457 -3.71572 0
      vertex -12.5 4.33013 0
      vertex -12.5 -4.33013 0
    endloop
  endfacet
  facet normal 0 0 -1
    outer loop
      vertex -13.3457 -3.71572 0
      vertex -13.3457 3.71572 0
      vertex -12.5 4.33013 0
    endloop
  endfacet
  facet normal 0 0 -1
    outer loop
      vertex -14.0451 -2.93893 0
      vertex -13.3457 3.71572 0
      vertex -13.3457 -3.71572 0
    endloop
  endfacet
  facet normal 0 0 -1
    outer loop
      vertex -14.0451 -2.93893 0
      vertex -14.0451 2.93893 0
      vertex -13.3457 3.71572 0
    endloop
  endfacet
  facet normal 0 0 -1
    outer loop
      vertex -14.5677 -2.03368 0
      vertex -14.0451 2.93893 0
      vertex -14.0451 -2.93893 0
    endloop
  endfacet
  facet normal 0 0 -1
    outer loop
      vertex -14.5677 -2.03368 0
      vertex -14.5677 2.03368 0
      vertex -14.0451 2.93893 0
    endloop
  endfacet
  facet normal 0 0 -1
    outer loop
      vertex -14.8907 -1.03956 0
      vertex -14.5677 2.03368 0
      vertex -14.5677 -2.03368 0
    endloop
  endfacet
  facet normal 0 0 -1
    outer loop
      vertex -14.8907 -1.03956 0
      vertex -14.8907 1.03956 0
      vertex -14.5677 2.03368 0
    endloop
  endfacet
  facet normal 0 -0 -1
    outer loop
      vertex -14.8907 1.03956 0
      vertex -14.8907 -1.03956 0
      vertex -15 0 0
    endloop
  endfacet
  facet normal -0.951057 -0.309017 0
    outer loop
      vertex -14.5677 -2.03368 0
      vertex -14.8907 -1.03956 5
      vertex -14.8907 -1.03956 0
    endloop
  endfacet
  facet normal -0.951057 -0.309017 0
    outer loop
      vertex -14.8907 -1.03956 5
      vertex -14.5677 -2.03368 0
      vertex -14.5677 -2.03368 5
    endloop
  endfacet
  facet normal -0.994522 -0.104529 0
    outer loop
      vertex -14.8907 -1.03956 0
      vertex -15 0 5
      vertex -15 0 0
    endloop
  endfacet
  facet normal -0.994522 -0.104529 0
    outer loop
      vertex -15 0 5
      vertex -14.8907 -1.03956 0
      vertex -14.8907 -1.03956 5
    endloop
  endfacet
  facet normal 0.406737 0.913545 -0
    outer loop
      vertex 5 8.66025 0
      vertex 3.09017 9.51056 5
      vertex 5 8.66025 5
    endloop
  endfacet
  facet normal 0.406737 0.913545 0
    outer loop
      vertex 3.09017 9.51056 5
      vertex 5 8.66025 0
      vertex 3.09017 9.51056 0
    endloop
  endfacet
  facet normal 0.207911 -0.978148 0
    outer loop
      vertex 1.04528 -9.94522 0
      vertex 3.09017 -9.51056 5
      vertex 1.04528 -9.94522 5
    endloop
  endfacet
  facet normal 0.207911 -0.978148 0
    outer loop
      vertex 3.09017 -9.51056 5
      vertex 1.04528 -9.94522 0
      vertex 3.09017 -9.51056 0
    endloop
  endfacet
  facet normal -0.5 0.866025 0
    outer loop
      vertex -5 8.66025 0
      vertex -12.5 4.33013 5
      vertex -5 8.66025 5
    endloop
  endfacet
  facet normal -0.5 0.866025 0
    outer loop
      vertex -12.5 4.33013 5
      vertex -5 8.66025 0
      vertex -12.5 4.33013 0
    endloop
  endfacet
  facet normal -0.743145 0.669131 0
    outer loop
      vertex -14.0451 2.93893 0
      vertex -13.3457 3.71572 5
      vertex -13.3457 3.71572 0
    endloop
  endfacet
  facet normal -0.743145 0.669131 0
    outer loop
      vertex -13.3457 3.71572 5
      vertex -14.0451 2.93893 0
      vertex -14.0451 2.93893 5
    endloop
  endfacet
  facet normal -0.406737 -0.913545 0
    outer loop
      vertex -5 -8.66025 0
      vertex -3.09017 -9.51056 5
      vertex -5 -8.66025 5
    endloop
  endfacet
  facet normal -0.406737 -0.913545 -0
    outer loop
      vertex -3.09017 -9.51056 5
      vertex -5 -8.66025 0
      vertex -3.09017 -9.51056 0
    endloop
  endfacet
  facet normal -0.951057 0.309017 0
    outer loop
      vertex -14.8907 1.03956 0
      vertex -14.5677 2.03368 5
      vertex -14.5677 2.03368 0
    endloop
  endfacet
  facet normal -0.951057 0.309017 0
    outer loop
      vertex -14.5677 2.03368 5
      vertex -14.8907 1.03956 0
      vertex -14.8907 1.03956 5
    endloop
  endfacet
  facet normal 0 1 -0
    outer loop
      vertex 1.04528 9.94522 0
      vertex -1.04528 9.94522 5
      vertex 1.04528 9.94522 5
    endloop
  endfacet
  facet normal 0 1 0
    outer loop
      vertex -1.04528 9.94522 5
      vertex 1.04528 9.94522 0
      vertex -1.04528 9.94522 0
    endloop
  endfacet
  facet normal -0.207911 0.978148 0
    outer loop
      vertex -1.04528 9.94522 0
      vertex -3.09017 9.51056 5
      vertex -1.04528 9.94522 5
    endloop
  endfacet
  facet normal -0.207911 0.978148 0
    outer loop
      vertex -3.09017 9.51056 5
      vertex -1.04528 9.94522 0
      vertex -3.09017 9.51056 0
    endloop
  endfacet
  facet normal -0.406737 0.913545 0
    outer loop
      vertex -3.09017 9.51056 0
      vertex -5 8.66025 5
      vertex -3.09017 9.51056 5
    endloop
  endfacet
  facet normal -0.406737 0.913545 0
    outer loop
      vertex -5 8.66025 5
      vertex -3.09017 9.51056 0
      vertex -5 8.66025 0
    endloop
  endfacet
  facet normal -0.587785 0.809017 0
    outer loop
      vertex -12.5 4.33013 0
      vertex -13.3457 3.71572 5
      vertex -12.5 4.33013 5
    endloop
  endfacet
  facet normal -0.587785 0.809017 0
    outer loop
      vertex -13.3457 3.71572 5
      vertex -12.5 4.33013 0
      vertex -13.3457 3.71572 0
    endloop
  endfacet
  facet normal 0.994522 0.104529 0
    outer loop
      vertex 15 0 5
      vertex 14.8907 1.03956 0
      vertex 14.8907 1.03956 5
    endloop
  endfacet
  facet normal 0.994522 0.104529 0
    outer loop
      vertex 14.8907 1.03956 0
      vertex 15 0 5
      vertex 15 0 0
    endloop
  endfacet
  facet normal 0.5 -0.866025 0
    outer loop
      vertex 5 -8.66025 0
      vertex 12.5 -4.33013 5
      vertex 5 -8.66025 5
    endloop
  endfacet
  facet normal 0.5 -0.866025 0
    outer loop
      vertex 12.5 -4.33013 5
      vertex 5 -8.66025 0
      vertex 12.5 -4.33013 0
    endloop
  endfacet
  facet normal 0.743145 -0.669131 0
    outer loop
      vertex 13.3457 -3.71572 5
      vertex 14.0451 -2.93893 0
      vertex 14.0451 -2.93893 5
    endloop
  endfacet
  facet normal 0.743145 -0.669131 0
    outer loop
      vertex 14.0451 -2.93893 0
      vertex 13.3457 -3.71572 5
      vertex 13.3457 -3.71572 0
    endloop
  endfacet
  facet normal -0.5 -0.866025 0
    outer loop
      vertex -12.5 -4.33013 0
      vertex -5 -8.66025 5
      vertex -12.5 -4.33013 5
    endloop
  endfacet
  facet normal -0.5 -0.866025 -0
    outer loop
      vertex -5 -8.66025 5
      vertex -12.5 -4.33013 0
      vertex -5 -8.66025 0
    endloop
  endfacet
  facet normal -0.866025 -0.5 0
    outer loop
      vertex -14.0451 -2.93893 0
      vertex -14.5677 -2.03368 5
      vertex -14.5677 -2.03368 0
    endloop
  endfacet
  facet normal -0.866025 -0.5 0
    outer loop
      vertex -14.5677 -2.03368 5
      vertex -14.0451 -2.93893 0
      vertex -14.0451 -2.93893 5
    endloop
  endfacet
  facet normal -0.207911 -0.978148 0
    outer loop
      vertex -3.09017 -9.51056 0
      vertex -1.04528 -9.94522 5
      vertex -3.09017 -9.51056 5
    endloop
  endfacet
  facet normal -0.207911 -0.978148 -0
    outer loop
      vertex -1.04528 -9.94522 5
      vertex -3.09017 -9.51056 0
      vertex -1.04528 -9.94522 0
    endloop
  endfacet
  facet normal 0 -1 0
    outer loop
      vertex -1.04528 -9.94522 0
      vertex 1.04528 -9.94522 5
      vertex -1.04528 -9.94522 5
    endloop
  endfacet
  facet normal 0 -1 -0
    outer loop
      vertex 1.04528 -9.94522 5
      vertex -1.04528 -9.94522 0
      vertex 1.04528 -9.94522 0
    endloop
  endfacet
  facet normal -0.994522 0.104529 0
    outer loop
      vertex -15 0 0
      vertex -14.8907 1.03956 5
      vertex -14.8907 1.03956 0
    endloop
  endfacet
  facet normal -0.994522 0.104529 0
    outer loop
      vertex -14.8907 1.03956 5
      vertex -15 0 0
      vertex -15 0 5
    endloop
  endfacet
  facet normal 0 0 1
    outer loop
      vertex 7.55463 0.519779 5
      vertex 4.89074 1.03956 5
      vertex 5 0 5
    endloop
  endfacet
  facet normal 0 0 1
    outer loop
      vertex 8.32717 1.85786 5
      vertex 4.56773 2.03368 5
      vertex 4.89074 1.03956 5
    endloop
  endfacet
  facet normal 0 0 1
    outer loop
      vertex 8.32717 1.85786 5
      vertex 4.04508 2.93893 5
      vertex 4.56773 2.03368 5
    endloop
  endfacet
  facet normal 0 0 1
    outer loop
      vertex 5 8.66025 5
      vertex 3.34565 3.71572 5
      vertex 4.04508 2.93893 5
    endloop
  endfacet
  facet normal 0 0 1
    outer loop
      vertex 2.5 4.33013 5
      vertex 5 8.66025 5
      vertex 3.09017 9.51056 5
    endloop
  endfacet
  facet normal 0 0 1
    outer loop
      vertex 5 8.66025 5
      vertex 2.5 4.33013 5
      vertex 3.34565 3.71572 5
    endloop
  endfacet
  facet normal 0 0 1
    outer loop
      vertex 3.09017 9.51056 5
      vertex 1.54508 4.75528 5
      vertex 2.5 4.33013 5
    endloop
  endfacet
  facet normal 0 0 1
    outer loop
      vertex 1.04528 9.94522 5
      vertex 1.54508 4.75528 5
      vertex 3.09017 9.51056 5
    endloop
  endfacet
  facet normal 0 0 1
    outer loop
      vertex 1.04528 9.94522 5
      vertex 0.522642 4.97261 5
      vertex 1.54508 4.75528 5
    endloop
  endfacet
  facet normal 0 0 1
    outer loop
      vertex 1.04528 9.94522 5
      vertex -0.522642 4.97261 5
      vertex 0.522642 4.97261 5
    endloop
  endfacet
  facet normal -0 0 1
    outer loop
      vertex -1.04528 9.94522 5
      vertex -0.522642 4.97261 5
      vertex 1.04528 9.94522 5
    endloop
  endfacet
  facet normal 0 0 1
    outer loop
      vertex -1.04528 9.94522 5
      vertex -1.54508 4.75528 5
      vertex -0.522642 4.97261 5
    endloop
  endfacet
  facet normal -0 0 1
    outer loop
      vertex -3.09017 9.51056 5
      vertex -1.54508 4.75528 5
      vertex -1.04528 9.94522 5
    endloop
  endfacet
  facet normal 0 0 1
    outer loop
      vertex -1.54508 4.75528 5
      vertex -3.09017 9.51056 5
      vertex -2.5 4.33013 5
    endloop
  endfacet
  facet normal -0 0 1
    outer loop
      vertex -5 8.66025 5
      vertex -2.5 4.33013 5
      vertex -3.09017 9.51056 5
    endloop
  endfacet
  facet normal 0 0 1
    outer loop
      vertex -2.5 4.33013 5
      vertex -5 8.66025 5
      vertex -3.34565 3.71572 5
    endloop
  endfacet
  facet normal 0 0 1
    outer loop
      vertex -3.34565 3.71572 5
      vertex -5 8.66025 5
      vertex -4.04508 2.93893 5
    endloop
  endfacet
  facet normal 0 0 1
    outer loop
      vertex -8.75 2.16506 5
      vertex -4.04508 2.93893 5
      vertex -5 8.66025 5
    endloop
  endfacet
  facet normal 0 -0 1
    outer loop
      vertex -8.32717 1.85786 5
      vertex -4.04508 2.93893 5
      vertex -8.75 2.16506 5
    endloop
  endfacet
  facet normal 0 -0 1
    outer loop
      vertex -7.97746 1.46946 5
      vertex -4.56773 2.03368 5
      vertex -8.32717 1.85786 5
    endloop
  endfacet
  facet normal -0 0 1
    outer loop
      vertex -7.71614 -1.01684 5
      vertex -4.89074 -1.03956 5
      vertex -7.55463 -0.519779 5
    endloop
  endfacet
  facet normal 0 0 1
    outer loop
      vertex -4.56773 2.03368 5
      vertex -7.71614 1.01684 5
      vertex -4.89074 1.03956 5
    endloop
  endfacet
  facet normal 0 0 1
    outer loop
      vertex -5 0 5
      vertex -7.55463 0.519779 5
      vertex -7.5 0 5
    endloop
  endfacet
  facet normal 0 0 1
    outer loop
      vertex -4.89074 1.03956 5
      vertex -7.55463 0.519779 5
      vertex -5 0 5
    endloop
  endfacet
  facet normal 0 -0 1
    outer loop
      vertex -7.55463 0.519779 5
      vertex -4.89074 1.03956 5
      vertex -7.71614 1.01684 5
    endloop
  endfacet
  facet normal 0 -0 1
    outer loop
      vertex -7.71614 1.01684 5
      vertex -4.56773 2.03368 5
      vertex -7.97746 1.46946 5
    endloop
  endfacet
  facet normal 0 0 1
    outer loop
      vertex -4.04508 2.93893 5
      vertex -8.32717 1.85786 5
      vertex -4.56773 2.03368 5
    endloop
  endfacet
  facet normal 0 0 1
    outer loop
      vertex -5 8.66025 5
      vertex -9.22746 2.37764 5
      vertex -8.75 2.16506 5
    endloop
  endfacet
  facet normal 0 0 1
    outer loop
      vertex -5 8.66025 5
      vertex -9.73868 2.4863 5
      vertex -9.22746 2.37764 5
    endloop
  endfacet
  facet normal -0 0 1
    outer loop
      vertex -12.5 4.33013 5
      vertex -9.73868 2.4863 5
      vertex -5 8.66025 5
    endloop
  endfacet
  facet normal 0 0 1
    outer loop
      vertex -9.73868 2.4863 5
      vertex -12.5 4.33013 5
      vertex -10.2613 2.4863 5
    endloop
  endfacet
  facet normal 0 0 1
    outer loop
      vertex -10.2613 2.4863 5
      vertex -12.5 4.33013 5
      vertex -10.7725 2.37764 5
    endloop
  endfacet
  facet normal 0 0 1
    outer loop
      vertex -10.7725 2.37764 5
      vertex -12.5 4.33013 5
      vertex -11.25 2.16506 5
    endloop
  endfacet
  facet normal 0 0 1
    outer loop
      vertex -11.25 2.16506 5
      vertex -12.5 4.33013 5
      vertex -11.6728 1.85786 5
    endloop
  endfacet
  facet normal -0 0 1
    outer loop
      vertex -13.3457 3.71572 5
      vertex -11.6728 1.85786 5
      vertex -12.5 4.33013 5
    endloop
  endfacet
  facet normal 0 0 1
    outer loop
      vertex -11.6728 1.85786 5
      vertex -13.3457 3.71572 5
      vertex -12.0225 1.46946 5
    endloop
  endfacet
  facet normal -0 0 1
    outer loop
      vertex -14.0451 2.93893 5
      vertex -12.0225 1.46946 5
      vertex -13.3457 3.71572 5
    endloop
  endfacet
  facet normal 0 0 1
    outer loop
      vertex -12.0225 1.46946 5
      vertex -14.0451 2.93893 5
      vertex -12.2839 1.01684 5
    endloop
  endfacet
  facet normal -0 0 1
    outer loop
      vertex -14.5677 2.03368 5
      vertex -12.2839 1.01684 5
      vertex -14.0451 2.93893 5
    endloop
  endfacet
  facet normal 0 0 1
    outer loop
      vertex -12.2839 1.01684 5
      vertex -14.5677 2.03368 5
      vertex -12.4454 0.519779 5
    endloop
  endfacet
  facet normal 0 0 1
    outer loop
      vertex -12.5 0 5
      vertex -13.3457 -3.71572 5
      vertex -12.5 -4.33013 5
    endloop
  endfacet
  facet normal -0 0 1
    outer loop
      vertex -14.8907 1.03956 5
      vertex -12.4454 0.519779 5
      vertex -14.5677 2.03368 5
    endloop
  endfacet
  facet normal 0 0 1
    outer loop
      vertex -12.5 0 5
      vertex -14.0451 -2.93893 5
      vertex -13.3457 -3.71572 5
    endloop
  endfacet
  facet normal 0 0 1
    outer loop
      vertex -12.4454 0.519779 5
      vertex -14.8907 1.03956 5
      vertex -12.5 0 5
    endloop
  endfacet
  facet normal 0 0 1
    outer loop
      vertex -12.5 0 5
      vertex -14.5677 -2.03368 5
      vertex -14.0451 -2.93893 5
    endloop
  endfacet
  facet normal 0 0 1
    outer loop
      vertex -15 0 5
      vertex -12.5 0 5
      vertex -14.8907 1.03956 5
    endloop
  endfacet
  facet normal 0 0 1
    outer loop
      vertex -12.5 0 5
      vertex -14.8907 -1.03956 5
      vertex -14.5677 -2.03368 5
    endloop
  endfacet
  facet normal 0 0 1
    outer loop
      vertex -12.5 0 5
      vertex -15 0 5
      vertex -14.8907 -1.03956 5
    endloop
  endfacet
  facet normal 0 0 1
    outer loop
      vertex -4.89074 -1.03956 5
      vertex -7.71614 -1.01684 5
      vertex -4.56773 -2.03368 5
    endloop
  endfacet
  facet normal -0 0 1
    outer loop
      vertex -7.97746 -1.46946 5
      vertex -4.56773 -2.03368 5
      vertex -7.71614 -1.01684 5
    endloop
  endfacet
  facet normal -0 0 1
    outer loop
      vertex -8.32717 -1.85786 5
      vertex -4.56773 -2.03368 5
      vertex -7.97746 -1.46946 5
    endloop
  endfacet
  facet normal 0 0 1
    outer loop
      vertex -8.75 -2.16506 5
      vertex -4.56773 -2.03368 5
      vertex -8.32717 -1.85786 5
    endloop
  endfacet
  facet normal 0 0 1
    outer loop
      vertex -4.56773 -2.03368 5
      vertex -8.75 -2.16506 5
      vertex -5 -8.66025 5
    endloop
  endfacet
  facet normal -0 0 1
    outer loop
      vertex -9.22746 -2.37764 5
      vertex -5 -8.66025 5
      vertex -8.75 -2.16506 5
    endloop
  endfacet
  facet normal -0 0 1
    outer loop
      vertex -9.73868 -2.4863 5
      vertex -5 -8.66025 5
      vertex -9.22746 -2.37764 5
    endloop
  endfacet
  facet normal 0 0 1
    outer loop
      vertex -12.5 -4.33013 5
      vertex -9.73868 -2.4863 5
      vertex -10.2613 -2.4863 5
    endloop
  endfacet
  facet normal 0 0 1
    outer loop
      vertex -12.5 -4.33013 5
      vertex -10.2613 -2.4863 5
      vertex -10.7725 -2.37764 5
    endloop
  endfacet
  facet normal 0 0 1
    outer loop
      vertex -12.5 -4.33013 5
      vertex -10.7725 -2.37764 5
      vertex -11.25 -2.16506 5
    endloop
  endfacet
  facet normal 0 0 1
    outer loop
      vertex -12.5 -4.33013 5
      vertex -11.25 -2.16506 5
      vertex -11.6728 -1.85786 5
    endloop
  endfacet
  facet normal 0 0 1
    outer loop
      vertex -9.73868 -2.4863 5
      vertex -12.5 -4.33013 5
      vertex -5 -8.66025 5
    endloop
  endfacet
  facet normal 0 0 1
    outer loop
      vertex -12.0225 -1.46946 5
      vertex -12.5 -4.33013 5
      vertex -11.6728 -1.85786 5
    endloop
  endfacet
  facet normal 0 0 1
    outer loop
      vertex -12.2839 -1.01684 5
      vertex -12.5 -4.33013 5
      vertex -12.0225 -1.46946 5
    endloop
  endfacet
  facet normal 0 0 1
    outer loop
      vertex -12.4454 -0.519779 5
      vertex -12.5 -4.33013 5
      vertex -12.2839 -1.01684 5
    endloop
  endfacet
  facet normal 0 0 1
    outer loop
      vertex -12.5 -4.33013 5
      vertex -12.4454 -0.519779 5
      vertex -12.5 0 5
    endloop
  endfacet
  facet normal 0 0 1
    outer loop
      vertex 14.8907 1.03956 5
      vertex 12.4454 0.519779 5
      vertex 12.5 0 5
    endloop
  endfacet
  facet normal 0 0 1
    outer loop
      vertex 13.3457 3.71572 5
      vertex 12.2839 1.01684 5
      vertex 12.4454 0.519779 5
    endloop
  endfacet
  facet normal 0 0 1
    outer loop
      vertex 13.3457 3.71572 5
      vertex 12.0225 1.46946 5
      vertex 12.2839 1.01684 5
    endloop
  endfacet
  facet normal 0 0 1
    outer loop
      vertex 13.3457 3.71572 5
      vertex 11.6728 1.85786 5
      vertex 12.0225 1.46946 5
    endloop
  endfacet
  facet normal 0 0 1
    outer loop
      vertex 12.5 4.33013 5
      vertex 11.25 2.16506 5
      vertex 11.6728 1.85786 5
    endloop
  endfacet
  facet normal 0 0 1
    outer loop
      vertex 12.5 4.33013 5
      vertex 10.7725 2.37764 5
      vertex 11.25 2.16506 5
    endloop
  endfacet
  facet normal 0 0 1
    outer loop
      vertex 12.5 4.33013 5
      vertex 10.2613 2.4863 5
      vertex 10.7725 2.37764 5
    endloop
  endfacet
  facet normal 0 0 1
    outer loop
      vertex 12.5 4.33013 5
      vertex 9.73868 2.4863 5
      vertex 10.2613 2.4863 5
    endloop
  endfacet
  facet normal 0 0 1
    outer loop
      vertex 5 8.66025 5
      vertex 9.73868 2.4863 5
      vertex 12.5 4.33013 5
    endloop
  endfacet
  facet normal 0 0 1
    outer loop
      vertex 9.73868 2.4863 5
      vertex 5 8.66025 5
      vertex 9.22746 2.37764 5
    endloop
  endfacet
  facet normal 0 0 1
    outer loop
      vertex 4.89074 1.03956 5
      vertex 7.55463 0.519779 5
      vertex 7.71614 1.01684 5
    endloop
  endfacet
  facet normal -0 0 1
    outer loop
      vertex 4.89074 1.03956 5
      vertex 7.71614 1.01684 5
      vertex 7.97746 1.46946 5
    endloop
  endfacet
  facet normal 0 0 1
    outer loop
      vertex 8.32717 1.85786 5
      vertex 4.89074 1.03956 5
      vertex 7.97746 1.46946 5
    endloop
  endfacet
  facet normal 0 0 1
    outer loop
      vertex 8.75 2.16506 5
      vertex 4.04508 2.93893 5
      vertex 8.32717 1.85786 5
    endloop
  endfacet
  facet normal -0 0 1
    outer loop
      vertex 4.04508 2.93893 5
      vertex 8.75 2.16506 5
      vertex 5 8.66025 5
    endloop
  endfacet
  facet normal 0 0 1
    outer loop
      vertex 9.22746 2.37764 5
      vertex 5 8.66025 5
      vertex 8.75 2.16506 5
    endloop
  endfacet
  facet normal 0 0 1
    outer loop
      vertex 12.5 0 5
      vertex 15 0 5
      vertex 14.8907 1.03956 5
    endloop
  endfacet
  facet normal 0 0 1
    outer loop
      vertex 12.4454 0.519779 5
      vertex 14.8907 1.03956 5
      vertex 14.5677 2.03368 5
    endloop
  endfacet
  facet normal 0 0 1
    outer loop
      vertex 15 0 5
      vertex 12.5 0 5
      vertex 14.8907 -1.03956 5
    endloop
  endfacet
  facet normal 0 0 1
    outer loop
      vertex 12.4454 0.519779 5
      vertex 14.5677 2.03368 5
      vertex 14.0451 2.93893 5
    endloop
  endfacet
  facet normal -0 0 1
    outer loop
      vertex 12.4454 -0.519779 5
      vertex 14.8907 -1.03956 5
      vertex 12.5 0 5
    endloop
  endfacet
  facet normal 0 0 1
    outer loop
      vertex 12.4454 0.519779 5
      vertex 14.0451 2.93893 5
      vertex 13.3457 3.71572 5
    endloop
  endfacet
  facet normal 0 0 1
    outer loop
      vertex 14.8907 -1.03956 5
      vertex 12.4454 -0.519779 5
      vertex 14.5677 -2.03368 5
    endloop
  endfacet
  facet normal 0 0 1
    outer loop
      vertex 11.6728 1.85786 5
      vertex 13.3457 3.71572 5
      vertex 12.5 4.33013 5
    endloop
  endfacet
  facet normal -0 0 1
    outer loop
      vertex 12.2839 -1.01684 5
      vertex 14.5677 -2.03368 5
      vertex 12.4454 -0.519779 5
    endloop
  endfacet
  facet normal 0 0 1
    outer loop
      vertex 14.5677 -2.03368 5
      vertex 12.2839 -1.01684 5
      vertex 14.0451 -2.93893 5
    endloop
  endfacet
  facet normal -0 0 1
    outer loop
      vertex 12.0225 -1.46946 5
      vertex 14.0451 -2.93893 5
      vertex 12.2839 -1.01684 5
    endloop
  endfacet
  facet normal 0 0 1
    outer loop
      vertex 14.0451 -2.93893 5
      vertex 12.0225 -1.46946 5
      vertex 13.3457 -3.71572 5
    endloop
  endfacet
  facet normal -0 0 1
    outer loop
      vertex 11.6728 -1.85786 5
      vertex 13.3457 -3.71572 5
      vertex 12.0225 -1.46946 5
    endloop
  endfacet
  facet normal 0 0 1
    outer loop
      vertex 13.3457 -3.71572 5
      vertex 11.6728 -1.85786 5
      vertex 12.5 -4.33013 5
    endloop
  endfacet
  facet normal -0 0 1
    outer loop
      vertex 11.25 -2.16506 5
      vertex 12.5 -4.33013 5
      vertex 11.6728 -1.85786 5
    endloop
  endfacet
  facet normal -0 0 1
    outer loop
      vertex 10.7725 -2.37764 5
      vertex 12.5 -4.33013 5
      vertex 11.25 -2.16506 5
    endloop
  endfacet
  facet normal -0 0 1
    outer loop
      vertex 10.2613 -2.4863 5
      vertex 12.5 -4.33013 5
      vertex 10.7725 -2.37764 5
    endloop
  endfacet
  facet normal -0 0 1
    outer loop
      vertex 9.73868 -2.4863 5
      vertex 12.5 -4.33013 5
      vertex 10.2613 -2.4863 5
    endloop
  endfacet
  facet normal 0 0 1
    outer loop
      vertex 5 -8.66025 5
      vertex 9.73868 -2.4863 5
      vertex 9.22746 -2.37764 5
    endloop
  endfacet
  facet normal 0 0 1
    outer loop
      vertex 5 -8.66025 5
      vertex 9.22746 -2.37764 5
      vertex 8.75 -2.16506 5
    endloop
  endfacet
  facet normal 0 0 1
    outer loop
      vertex 7.55463 0.519779 5
      vertex 5 0 5
      vertex 7.5 0 5
    endloop
  endfacet
  facet normal 0 0 1
    outer loop
      vertex 7.5 0 5
      vertex 5 0 5
      vertex 7.55463 -0.519779 5
    endloop
  endfacet
  facet normal 0 0 1
    outer loop
      vertex 4.89074 -1.03956 5
      vertex 7.55463 -0.519779 5
      vertex 5 0 5
    endloop
  endfacet
  facet normal 0 0 1
    outer loop
      vertex 7.55463 -0.519779 5
      vertex 4.89074 -1.03956 5
      vertex 7.71614 -1.01684 5
    endloop
  endfacet
  facet normal 0 0 1
    outer loop
      vertex 4.56773 -2.03368 5
      vertex 7.71614 -1.01684 5
      vertex 4.89074 -1.03956 5
    endloop
  endfacet
  facet normal 0 0 1
    outer loop
      vertex 7.71614 -1.01684 5
      vertex 4.56773 -2.03368 5
      vertex 7.97746 -1.46946 5
    endloop
  endfacet
  facet normal 0 0 1
    outer loop
      vertex 9.73868 -2.4863 5
      vertex 5 -8.66025 5
      vertex 12.5 -4.33013 5
    endloop
  endfacet
  facet normal 0 0 1
    outer loop
      vertex 7.97746 -1.46946 5
      vertex 4.56773 -2.03368 5
      vertex 8.32717 -1.85786 5
    endloop
  endfacet
  facet normal 0 0 1
    outer loop
      vertex 4.04508 -2.93893 5
      vertex 8.32717 -1.85786 5
      vertex 4.56773 -2.03368 5
    endloop
  endfacet
  facet normal 0 0 1
    outer loop
      vertex 8.32717 -1.85786 5
      vertex 4.04508 -2.93893 5
      vertex 8.75 -2.16506 5
    endloop
  endfacet
  facet normal 0 0 1
    outer loop
      vertex 8.75 -2.16506 5
      vertex 4.04508 -2.93893 5
      vertex 5 -8.66025 5
    endloop
  endfacet
  facet normal -0 0 1
    outer loop
      vertex 3.34565 -3.71572 5
      vertex 5 -8.66025 5
      vertex 4.04508 -2.93893 5
    endloop
  endfacet
  facet normal -0 0 1
    outer loop
      vertex 2.5 -4.33013 5
      vertex 5 -8.66025 5
      vertex 3.34565 -3.71572 5
    endloop
  endfacet
  facet normal 0 0 1
    outer loop
      vertex 5 -8.66025 5
      vertex 2.5 -4.33013 5
      vertex 3.09017 -9.51056 5
    endloop
  endfacet
  facet normal -0 0 1
    outer loop
      vertex 1.54508 -4.75528 5
      vertex 3.09017 -9.51056 5
      vertex 2.5 -4.33013 5
    endloop
  endfacet
  facet normal 0 0 1
    outer loop
      vertex 1.54508 -4.75528 5
      vertex 1.04528 -9.94522 5
      vertex 3.09017 -9.51056 5
    endloop
  endfacet
  facet normal -0 0 1
    outer loop
      vertex 0.522642 -4.97261 5
      vertex 1.04528 -9.94522 5
      vertex 1.54508 -4.75528 5
    endloop
  endfacet
  facet normal -0 0 1
    outer loop
      vertex -0.522642 -4.97261 5
      vertex 1.04528 -9.94522 5
      vertex 0.522642 -4.97261 5
    endloop
  endfacet
  facet normal 0 0 1
    outer loop
      vertex -0.522642 -4.97261 5
      vertex -1.04528 -9.94522 5
      vertex 1.04528 -9.94522 5
    endloop
  endfacet
  facet normal 0 0 1
    outer loop
      vertex -1.54508 -4.75528 5
      vertex -1.04528 -9.94522 5
      vertex -0.522642 -4.97261 5
    endloop
  endfacet
  facet normal 0 0 1
    outer loop
      vertex -3.09017 -9.51056 5
      vertex -1.54508 -4.75528 5
      vertex -2.5 -4.33013 5
    endloop
  endfacet
  facet normal 0 0 1
    outer loop
      vertex -1.54508 -4.75528 5
      vertex -3.09017 -9.51056 5
      vertex -1.04528 -9.94522 5
    endloop
  endfacet
  facet normal 0 0 1
    outer loop
      vertex -5 -8.66025 5
      vertex -2.5 -4.33013 5
      vertex -3.34565 -3.71572 5
    endloop
  endfacet
  facet normal 0 0 1
    outer loop
      vertex -5 -8.66025 5
      vertex -3.34565 -3.71572 5
      vertex -4.04508 -2.93893 5
    endloop
  endfacet
  facet normal 0 0 1
    outer loop
      vertex -5 -8.66025 5
      vertex -4.04508 -2.93893 5
      vertex -4.56773 -2.03368 5
    endloop
  endfacet
  facet normal 0 0 1
    outer loop
      vertex -5 0 5
      vertex -7.55463 -0.519779 5
      vertex -4.89074 -1.03956 5
    endloop
  endfacet
  facet normal 0 0 1
    outer loop
      vertex -2.5 -4.33013 5
      vertex -5 -8.66025 5
      vertex -3.09017 -9.51056 5
    endloop
  endfacet
  facet normal 0 0 1
    outer loop
      vertex -7.55463 -0.519779 5
      vertex -5 0 5
      vertex -7.5 0 5
    endloop
  endfacet
  facet normal 0.951057 0.309017 0
    outer loop
      vertex 14.8907 1.03956 5
      vertex 14.5677 2.03368 0
      vertex 14.5677 2.03368 5
    endloop
  endfacet
  facet normal 0.951057 0.309017 0
    outer loop
      vertex 14.5677 2.03368 0
      vertex 14.8907 1.03956 5
      vertex 14.8907 1.03956 0
    endloop
  endfacet
  facet normal 0.5 0.866025 -0
    outer loop
      vertex 12.5 4.33013 0
      vertex 5 8.66025 5
      vertex 12.5 4.33013 5
    endloop
  endfacet
  facet normal 0.5 0.866025 0
    outer loop
      vertex 5 8.66025 5
      vertex 12.5 4.33013 0
      vertex 5 8.66025 0
    endloop
  endfacet
  facet normal 0.587785 0.809017 -0
    outer loop
      vertex 13.3457 3.71572 0
      vertex 12.5 4.33013 5
      vertex 13.3457 3.71572 5
    endloop
  endfacet
  facet normal 0.587785 0.809017 0
    outer loop
      vertex 12.5 4.33013 5
      vertex 13.3457 3.71572 0
      vertex 12.5 4.33013 0
    endloop
  endfacet
  facet normal 0.866025 0.5 0
    outer loop
      vertex 14.5677 2.03368 5
      vertex 14.0451 2.93893 0
      vertex 14.0451 2.93893 5
    endloop
  endfacet
  facet normal 0.866025 0.5 0
    outer loop
      vertex 14.0451 2.93893 0
      vertex 14.5677 2.03368 5
      vertex 14.5677 2.03368 0
    endloop
  endfacet
  facet normal 0.207911 0.978148 -0
    outer loop
      vertex 3.09017 9.51056 0
      vertex 1.04528 9.94522 5
      vertex 3.09017 9.51056 5
    endloop
  endfacet
  facet normal 0.207911 0.978148 0
    outer loop
      vertex 1.04528 9.94522 5
      vertex 3.09017 9.51056 0
      vertex 1.04528 9.94522 0
    endloop
  endfacet
  facet normal -0.866025 0.5 0
    outer loop
      vertex -14.5677 2.03368 0
      vertex -14.0451 2.93893 5
      vertex -14.0451 2.93893 0
    endloop
  endfacet
  facet normal -0.866025 0.5 0
    outer loop
      vertex -14.0451 2.93893 5
      vertex -14.5677 2.03368 0
      vertex -14.5677 2.03368 5
    endloop
  endfacet
  facet normal 0.406737 -0.913545 0
    outer loop
      vertex 3.09017 -9.51056 0
      vertex 5 -8.66025 5
      vertex 3.09017 -9.51056 5
    endloop
  endfacet
  facet normal 0.406737 -0.913545 0
    outer loop
      vertex 5 -8.66025 5
      vertex 3.09017 -9.51056 0
      vertex 5 -8.66025 0
    endloop
  endfacet
  facet normal 0.587785 -0.809017 0
    outer loop
      vertex 12.5 -4.33013 0
      vertex 13.3457 -3.71572 5
      vertex 12.5 -4.33013 5
    endloop
  endfacet
  facet normal 0.587785 -0.809017 0
    outer loop
      vertex 13.3457 -3.71572 5
      vertex 12.5 -4.33013 0
      vertex 13.3457 -3.71572 0
    endloop
  endfacet
  facet normal 0.951057 -0.309017 0
    outer loop
      vertex 14.5677 -2.03368 5
      vertex 14.8907 -1.03956 0
      vertex 14.8907 -1.03956 5
    endloop
  endfacet
  facet normal 0.951057 -0.309017 0
    outer loop
      vertex 14.8907 -1.03956 0
      vertex 14.5677 -2.03368 5
      vertex 14.5677 -2.03368 0
    endloop
  endfacet
  facet normal 0.866025 -0.5 0
    outer loop
      vertex 14.0451 -2.93893 5
      vertex 14.5677 -2.03368 0
      vertex 14.5677 -2.03368 5
    endloop
  endfacet
  facet normal 0.866025 -0.5 0
    outer loop
      vertex 14.5677 -2.03368 0
      vertex 14.0451 -2.93893 5
      vertex 14.0451 -2.93893 0
    endloop
  endfacet
  facet normal -0.743145 -0.669131 0
    outer loop
      vertex -13.3457 -3.71572 0
      vertex -14.0451 -2.93893 5
      vertex -14.0451 -2.93893 0
    endloop
  endfacet
  facet normal -0.743145 -0.669131 0
    outer loop
      vertex -14.0451 -2.93893 5
      vertex -13.3457 -3.71572 0
      vertex -13.3457 -3.71572 5
    endloop
  endfacet
  facet normal 0.743145 0.669131 0
    outer loop
      vertex 14.0451 2.93893 5
      vertex 13.3457 3.71572 0
      vertex 13.3457 3.71572 5
    endloop
  endfacet
  facet normal 0.743145 0.669131 0
    outer loop
      vertex 13.3457 3.71572 0
      vertex 14.0451 2.93893 5
      vertex 14.0451 2.93893 0
    endloop
  endfacet
  facet normal 0.994522 -0.104529 0
    outer loop
      vertex 14.8907 -1.03956 5
      vertex 15 0 0
      vertex 15 0 5
    endloop
  endfacet
  facet normal 0.994522 -0.104529 0
    outer loop
      vertex 15 0 0
      vertex 14.8907 -1.03956 5
      vertex 14.8907 -1.03956 0
    endloop
  endfacet
  facet normal -0.587785 -0.809017 0
    outer loop
      vertex -13.3457 -3.71572 0
      vertex -12.5 -4.33013 5
      vertex -13.3457 -3.71572 5
    endloop
  endfacet
  facet normal -0.587785 -0.809017 -0
    outer loop
      vertex -12.5 -4.33013 5
      vertex -13.3457 -3.71572 0
      vertex -12.5 -4.33013 0
    endloop
  endfacet
endsolid OpenSCAD_Model
